<?xml version="1.0"?>
<svg xmlns="http://www.w3.org/2000/svg" id="line" height="512px" viewBox="0 0 64 64" width="512px"><g><path d="m35 23h18a1 1 0 0 0 .8-.4l7.089-9.452a2.968 2.968 0 0 0 -.889-.148h-32a2.968 2.968 0 0 0 -.888.149l7.088 9.451a1 1 0 0 0 .8.4z" fill="#c4a2fc" data-original="#C4A2FC" class="active-path" style="fill:#A09BE7" data-old_color="#c4a2fc"/><path d="m32.6 23.8-7.1-9.461a2.981 2.981 0 0 0 -.5 1.661v44a3 3 0 0 0 3 3h15v-38h-8a3.014 3.014 0 0 1 -2.4-1.2z" fill="#c4a2fc" data-original="#C4A2FC" class="active-path" style="fill:#A09BE7" data-old_color="#c4a2fc"/><path d="m62.5 14.339-7.1 9.461a3.01 3.01 0 0 1 -2.4 1.2h-8v38h15a3 3 0 0 0 3-3v-44a2.981 2.981 0 0 0 -.5-1.661zm-4.964 39.368-2.829 2.829a1 1 0 0 1 -1.414 0l-2.829-2.829a1 1 0 0 1 0-1.414l2.829-2.829a1 1 0 0 1 1.414 0l2.829 2.829a1 1 0 0 1 0 1.414z" fill="#c4a2fc" data-original="#C4A2FC" class="active-path" style="fill:#A09BE7" data-old_color="#c4a2fc"/><g fill="#151a6a"><path d="m44 17h-1v-5a3 3 0 0 0 -3-3h-5v-5a3 3 0 0 0 -3-3h-28a3 3 0 0 0 -3 3v36a3 3 0 0 0 3 3h5v5a3 3 0 0 0 3 3h28a3 3 0 0 0 3-3v-13h1a3 3 0 0 0 3-3v-12a3 3 0 0 0 -3-3zm-4-6a1 1 0 0 1 1 1v5h-6v-6zm-37 29v-36a1 1 0 0 1 1-1h28a1 1 0 0 1 1 1v13h-9a3 3 0 0 0 -3 3v12a3 3 0 0 0 3 3h9v5a1 1 0 0 1 -1 1h-28a1 1 0 0 1 -1-1zm38 8a1 1 0 0 1 -1 1h-28a1 1 0 0 1 -1-1v-5h21a3 3 0 0 0 3-3v-5h6zm4-16a1 1 0 0 1 -1 1h-20a1 1 0 0 1 -1-1v-12a1 1 0 0 1 1-1h20a1 1 0 0 1 1 1z" data-original="#151A6A" class="" style="fill:#FFFFFF" data-old_color="#151A6A"/><path d="m9.293 14.95a1 1 0 0 0 1.414 0l4.242-4.243a1 1 0 0 0 0-1.414l-4.242-4.243a1.029 1.029 0 0 0 -1.414 0l-4.242 4.243a1 1 0 0 0 0 1.414zm.707-7.779 2.828 2.829-2.828 2.829-2.828-2.829z" data-original="#151A6A" class="" style="fill:#FFFFFF" data-old_color="#151A6A"/><path d="m34.707 21.05a1.029 1.029 0 0 0 -1.414 0l-4.242 4.243a1 1 0 0 0 0 1.414l4.242 4.243a1 1 0 0 0 1.414 0l4.242-4.243a1 1 0 0 0 0-1.414zm-.707 7.779-2.828-2.829 2.828-2.829 2.828 2.829z" data-original="#151A6A" class="" style="fill:#FFFFFF" data-old_color="#151A6A"/><path d="m19 11h11a1 1 0 0 0 0-2h-11a1 1 0 0 0 0 2z" data-original="#151A6A" class="" style="fill:#FFFFFF" data-old_color="#151A6A"/><path d="m5 20a1 1 0 0 0 1 1h11a1 1 0 0 0 0-2h-11a1 1 0 0 0 -1 1z" data-original="#151A6A" class="" style="fill:#FFFFFF" data-old_color="#151A6A"/><path d="m17 25h-11a1 1 0 0 0 0 2h11a1 1 0 0 0 0-2z" data-original="#151A6A" class="" style="fill:#FFFFFF" data-old_color="#151A6A"/><path d="m18 32a1 1 0 0 0 -1-1h-11a1 1 0 0 0 0 2h11a1 1 0 0 0 1-1z" data-original="#151A6A" class="" style="fill:#FFFFFF" data-old_color="#151A6A"/></g></g> </svg>
