<?xml version="1.0"?>
<svg xmlns="http://www.w3.org/2000/svg" id="Icons" height="512px" viewBox="0 0 64 64" width="512px" class=""><g><path d="m57.5 13h-24a1 1 0 0 0 -.931.635l-11 28a1 1 0 0 0 .931 1.365h8.279l-6.229 18.682a1 1 0 0 0 1.6 1.074l29-25a1 1 0 0 0 -.65-1.756h-8.954l12.812-21.49a1 1 0 0 0 -.858-1.51z" fill="#c4a2fc" data-original="#C4A2FC" class="active-path" style="fill:#A09BE7" data-old_color="#c4a2fc"/><path d="m38.5 30.983h-7.571l-2.849-9.644 5.42-3.516v3.16a1 1 0 1 0 2 0v-5a1 1 0 0 0 -1-1h-8.3l-2.446-8.283a3 3 0 1 0 -2.508 0l-2.446 8.283h-8.3a1 1 0 0 0 -1 1v5a1 1 0 0 0 2 0v-3.16l5.42 3.516-2.849 9.644h-7.571a1 1 0 0 0 -1 1v5a1 1 0 0 0 2 0v-3.2l4.854 3.013-3.813 12.904c-.137 1.229.91 1.489 1.486 1.132l12.473-7.741 12.473 7.741c.576.357 1.623.1 1.486-1.132l-3.813-12.907 4.854-3.013v3.2a1 1 0 1 0 2 0v-5a1 1 0 0 0 -1-.997zm-10.089-1.464.433 1.464h-2.811zm-5.911 1.29-4.628-2.849 4.628-3 4.628 3zm8.621-13.826-3.632 2.356-.7-2.356zm-4.791 5.492.944 3.2-2.937-1.905zm-3.83-19.492a1 1 0 1 1 -1 1 1 1 0 0 1 1-1zm0 6.529 1.616 5.471h-3.232zm-2.207 7.471h4.414l1.032 3.491-3.239 2.1-3.239-2.1zm.37 6.784-2.937 1.905.944-3.2zm-6.784-6.784h4.328l-.7 2.356zm2.71 12.536 2.378 1.464h-2.811zm-6.582 3.464h3.473l-.538 1.817zm1.2 14.766 2.913-9.862 6.48 4.026zm3.493-11.849.861-2.915h13.87l.869 2.915-7.8 4.839zm19.1 11.849-9.4-5.836 6.488-4.026zm-1.742-12.949-.538-1.821h3.473z" fill="#151a6a" data-original="#151A6A" class="" data-old_color="#151a6a" style="fill:#FFFFFF"/></g> </svg>
