<?xml version="1.0"?>
<svg xmlns="http://www.w3.org/2000/svg" id="Line" height="512px" viewBox="0 0 64 64" width="512px" class=""><g><path d="m60 31h-12v-4.142a4 4 0 0 0 2.858-2.858h8.142a1 1 0 0 0 0-2h-8.142a3.981 3.981 0 0 0 -7.716 0h-8.142a1 1 0 0 0 0 2h8.142a4 4 0 0 0 2.858 2.858v4.142h-12a3 3 0 0 0 -3 3v7h32v-7a3 3 0 0 0 -3-3zm-15-8a2 2 0 1 1 2 2 2 2 0 0 1 -2-2zm-4 15h-3a1 1 0 0 1 0-2h3a1 1 0 0 1 0 2zm15 0h-9a1 1 0 0 1 0-2h9a1 1 0 0 1 0 2z" fill="#c4a2fc" data-original="#C4A2FC" class="active-path" style="fill:#A09BE7" data-old_color="#c4a2fc"/><path d="m31 60a3 3 0 0 0 3 3h26a3 3 0 0 0 3-3v-7h-32zm16-4h9a1 1 0 0 1 0 2h-9a1 1 0 0 1 0-2zm-9 0h3a1 1 0 0 1 0 2h-3a1 1 0 0 1 0-2z" fill="#c4a2fc" data-original="#C4A2FC" class="active-path" style="fill:#A09BE7" data-old_color="#c4a2fc"/><path d="m31 51h32v-8h-32zm16-5h9a1 1 0 0 1 0 2h-9a1 1 0 0 1 0-2zm-9 0h3a1 1 0 0 1 0 2h-3a1 1 0 0 1 0-2z" fill="#c4a2fc" data-original="#C4A2FC" class="active-path" style="fill:#A09BE7" data-old_color="#c4a2fc"/><g fill="#151a6a"><path d="m6 8h1.964a1 1 0 0 0 0-2h-1.964a1 1 0 0 0 0 2z" data-original="#151A6A" class="" data-old_color="#151A6A" style="fill:#FFFFFF"/><path d="m7.964 16h-1.964a1 1 0 0 0 0 2h1.964a1 1 0 0 0 0-2z" data-original="#151A6A" class="" data-old_color="#151A6A" style="fill:#FFFFFF"/><path d="m7.964 26h-1.964a1 1 0 0 0 0 2h1.964a1 1 0 0 0 0-2z" data-original="#151A6A" class="" data-old_color="#151A6A" style="fill:#FFFFFF"/><path d="m48 1h-17a3 3 0 0 0 -3 3v26a3 3 0 0 0 3 3h8v4.142a4 4 0 0 0 -2.858 2.858h-6.284a3.981 3.981 0 0 0 -7.716 0h-5.284a4 4 0 0 0 -2.858-2.858v-4.142h7a3 3 0 0 0 3-3v-26a3 3 0 0 0 -3-3h-17a3 3 0 0 0 -3 3v26a3 3 0 0 0 3 3h8v4.142a4 4 0 0 0 -2.858 2.858h-7.142a1 1 0 0 0 0 2h7.142a3.981 3.981 0 0 0 7.716 0h5.284a4 4 0 0 0 2.858 2.858v5.142a1 1 0 0 0 2 0v-5.142a4 4 0 0 0 2.858-2.858h6.284a3.981 3.981 0 0 0 7.716 0h6.142a1 1 0 0 0 0-2h-6.142a4 4 0 0 0 -2.858-2.858v-4.142h7a3 3 0 0 0 3-3v-26a3 3 0 0 0 -3-3zm-45 12h19v8h-19zm1-10h17a1 1 0 0 1 1 1v7h-19v-7a1 1 0 0 1 1-1zm-1 27v-7h19v7a1 1 0 0 1 -1 1h-17a1 1 0 0 1 -1-1zm10 13a2 2 0 1 1 2-2 2 2 0 0 1 -2 2zm13 0a2 2 0 1 1 2-2 2 2 0 0 1 -2 2zm16-2a2 2 0 1 1 -2-2 2 2 0 0 1 2 2zm-12-28h19v8h-19zm1-10h17a1 1 0 0 1 1 1v7h-19v-7a1 1 0 0 1 1-1zm17 28h-17a1 1 0 0 1 -1-1v-7h19v7a1 1 0 0 1 -1 1z" data-original="#151A6A" class="" data-old_color="#151A6A" style="fill:#FFFFFF"/><path d="m33 8h1.964a1 1 0 0 0 0-2h-1.964a1 1 0 0 0 0 2z" data-original="#151A6A" class="" data-old_color="#151A6A" style="fill:#FFFFFF"/><path d="m34.964 16h-1.964a1 1 0 0 0 0 2h1.964a1 1 0 0 0 0-2z" data-original="#151A6A" class="" data-old_color="#151A6A" style="fill:#FFFFFF"/><path d="m34.964 26h-1.964a1 1 0 0 0 0 2h1.964a1 1 0 0 0 0-2z" data-original="#151A6A" class="" data-old_color="#151A6A" style="fill:#FFFFFF"/></g></g> </svg>
