<?xml version="1.0"?>
<svg xmlns="http://www.w3.org/2000/svg" id="Line" height="512px" viewBox="0 0 64 64" width="512px" class=""><g><g fill="#c4a2fc"><path d="m25 42h15v9.001h-15z" data-original="#C4A2FC" class="" style="fill:#A09BE7" data-old_color="#C4A2FC"/><path d="m25 31h15v9h-15z" data-original="#C4A2FC" class="" style="fill:#A09BE7" data-old_color="#C4A2FC"/><path d="m42 31h15v9h-15z" data-original="#C4A2FC" class="" style="fill:#A09BE7" data-old_color="#C4A2FC"/><path d="m42 42h15v9h-15z" data-original="#C4A2FC" class="" style="fill:#A09BE7" data-old_color="#C4A2FC"/><path d="m60 25h-38a3 3 0 0 0 -3 3v26a3 3 0 0 0 3 3h38a3 3 0 0 0 3-3v-26a3 3 0 0 0 -3-3zm-1 26a2 2 0 0 1 -2 2h-32a2 2 0 0 1 -2-2v-20a2 2 0 0 1 2-2h32a2 2 0 0 1 2 2z" data-original="#C4A2FC" class="" style="fill:#A09BE7" data-old_color="#C4A2FC"/><path d="m50 61h-2v-2h-14v2h-2a1 1 0 0 0 0 2h18a1 1 0 0 0 0-2z" data-original="#C4A2FC" class="" style="fill:#A09BE7" data-old_color="#C4A2FC"/></g><path d="m48 7h-.131l.89-1.336a3 3 0 0 0 -2.496-4.664h-36.263a3 3 0 0 0 -3 3h-3a3 3 0 0 0 -3 3v8a3 3 0 0 0 3 3h3a3 3 0 0 0 3 3v2h-1a5.006 5.006 0 0 0 -5 5v3h-2a1 1 0 0 0 -1 1v18a1 1 0 0 0 1 1h4a3 3 0 0 0 3-3v-3h17.264a7 7 0 1 0 6.4-10.966l-3.125-7.034h12.461a3 3 0 0 0 3-3v-3h3a3 3 0 0 0 3-3v-8a3 3 0 0 0 -3-3zm-41 9h-3a1 1 0 0 1 -1-1v-8a1 1 0 0 1 1-1h3zm0 32a1 1 0 0 1 -1 1h-3v-16h3a1 1 0 0 1 1 1zm-1-17v-3a3 3 0 0 1 3-3h1.184a3 3 0 0 0 2.816 2h6.382l5 10h-15.382v-3a3 3 0 0 0 -3-3zm19.3 12h-16.3v-4h16.3a6.927 6.927 0 0 0 0 4zm11.7-2a5 5 0 1 1 -5-5 5.006 5.006 0 0 1 5 5zm-6.468-6.842a7 7 0 0 0 -4.056 2.558l-4.858-9.716h5.732zm12.468-10.158a1 1 0 0 1 -1 1h-29a1 1 0 0 1 -1-1v-3h23.859a4.987 4.987 0 0 0 4.161-2.227l2.98-4.473zm-4.645-6.336a2.991 2.991 0 0 1 -2.496 1.336h-25.859a1 1 0 0 1 -1-1v-14a1 1 0 0 1 1-1h36.263a1 1 0 0 1 .837 1.555zm10.645.336a1 1 0 0 1 -1 1h-3v-7.7l1.535-2.3h1.465a1 1 0 0 1 1 1z" fill="#151a6a" data-original="#151A6A" class="active-path" style="fill:#FFFFFF" data-old_color="#151a6a"/></g> </svg>
