<?xml version="1.0"?>
<svg xmlns="http://www.w3.org/2000/svg" id="Icons" height="512px" viewBox="0 0 64 64" width="512px" class=""><g><path d="m60 27h-36a3 3 0 0 0 -3 3v30a3 3 0 0 0 3 3h36a3 3 0 0 0 3-3v-30a3 3 0 0 0 -3-3zm-23.293 23.293a1 1 0 0 1 -1.414 1.414l-6-6a1 1 0 0 1 0-1.414l6-6a1 1 0 0 1 1.414 1.414l-5.293 5.293zm8.241-10.977-4 12a1 1 0 1 1 -1.9-.632l4-12a1 1 0 1 1 1.9.632zm9.759 6.391-6 6a1 1 0 0 1 -1.414-1.414l5.293-5.293-5.293-5.293a1 1 0 0 1 1.414-1.414l6 6a1 1 0 0 1 0 1.414z" fill="#c4a2fc" data-original="#C4A2FC" class="active-path" style="fill:#A09BE7" data-old_color="#c4a2fc"/><g fill="#151a6a"><path d="m48 1h-44a3 3 0 0 0 -3 3v36a3 3 0 0 0 3 3h44a3 3 0 0 0 3-3v-36a3 3 0 0 0 -3-3zm1 3v3h-5.065v-4h4.065a1 1 0 0 1 1 1zm-12.065 3v-4h5v4zm-7 0v-4h5v4zm-25.935-4h23.935v4h-24.935v-3a1 1 0 0 1 1-1zm44 38h-44a1 1 0 0 1 -1-1v-31h46v31a1 1 0 0 1 -1 1z" data-original="#151A6A" class="" data-old_color="#151A6A" style="fill:#FFFFFF"/><path d="m17 23v-8a1 1 0 0 0 -1-1h-10a1 1 0 0 0 -1 1v8a1 1 0 0 0 1 1h10a1 1 0 0 0 1-1zm-2-1h-8v-6h8z" data-original="#151A6A" class="" data-old_color="#151A6A" style="fill:#FFFFFF"/><path d="m21 24h10a1 1 0 0 0 1-1v-8a1 1 0 0 0 -1-1h-10a1 1 0 0 0 -1 1v8a1 1 0 0 0 1 1zm1-8h8v6h-8z" data-original="#151A6A" class="" data-old_color="#151A6A" style="fill:#FFFFFF"/><path d="m46 14h-10a1 1 0 0 0 -1 1v8a1 1 0 0 0 1 1h10a1 1 0 0 0 1-1v-8a1 1 0 0 0 -1-1zm-1 8h-8v-6h8z" data-original="#151A6A" class="" data-old_color="#151A6A" style="fill:#FFFFFF"/><path d="m42 29h-32a1 1 0 0 0 0 2h32a1 1 0 0 0 0-2z" data-original="#151A6A" class="" data-old_color="#151A6A" style="fill:#FFFFFF"/><path d="m35 34h-18a1 1 0 0 0 0 2h18a1 1 0 0 0 0-2z" data-original="#151A6A" class="" data-old_color="#151A6A" style="fill:#FFFFFF"/></g></g> </svg>
