<?xml version="1.0" encoding="iso-8859-1"?>
<!-- Generator: Adobe Illustrator 19.0.0, SVG Export Plug-In . SVG Version: 6.00 Build 0)  -->
<svg version="1.1" id="Capa_1" xmlns="http://www.w3.org/2000/svg" xmlns:xlink="http://www.w3.org/1999/xlink" x="0px" y="0px" height="75px" width="75px" fill="#08C8D5"
	 viewBox="0 0 480 480" style="enable-background:new 0 0 480 480;" xml:space="preserve">
<g>
	<g>
		<path d="M324.576,246.6L320,241.889V131.313l15.152-15.144c22.426-22.412,22.438-58.761,0.025-81.187
			c-1.872-1.874-3.872-3.615-5.985-5.213l6.4-19.2c1.418-4.184-0.824-8.726-5.009-10.145C329.752,0.142,328.879-0.001,328,0h-74.744
			c-29.952-0.088-58.786,11.374-80.504,32h-4.072c-21.044,0-38.104,17.059-38.105,38.103c0,10.106,4.014,19.799,11.161,26.945
			L160,115.313v126.576l-4.568,4.712C96.648,306.884,63.825,387.801,64,472c0,4.418,3.582,8,8,8s8-3.582,8-8
			c-0.139-77.014,28.784-151.246,80.992-207.864c4.987,59.547,30.986,115.38,73.352,157.52c3.124,3.123,8.188,3.123,11.312,0
			c42.366-42.141,68.365-97.973,73.352-157.52C371.215,320.755,400.138,394.986,400,472c0,4.418,3.582,8,8,8s8-3.582,8-8
			C416.174,387.802,383.354,306.887,324.576,246.6z M153.048,85.737c-8.633-8.631-8.635-22.626-0.004-31.26
			c4.147-4.148,9.771-6.477,15.636-6.476H176c2.122,0,4.156-0.844,5.656-2.344c18.946-19.054,44.73-29.734,71.6-29.656h63.648
			l-4.8,14.328c-4.377,13.12-13.301,24.243-25.16,31.36c-10.889,6.501-23.601,9.273-36.208,7.896l-49.88-5.536
			c-2.725-0.302-5.415,0.812-7.128,2.952l-26.4,33.024L153.048,85.737z M176.168,251.201l56.112,18.696l-28.2,84.552
			C187,322.621,177.451,287.299,176.168,251.201z M240,404.496c-9.364-10.02-17.851-20.825-25.368-32.296
			c0.389-0.515,0.712-1.076,0.96-1.672L240,297.296l24.408,73.232c0.228,0.618,0.534,1.204,0.912,1.744
			C257.815,383.716,249.344,394.497,240,404.496z M275.92,354.448L275.92,354.448l-28.2-84.592l56.112-18.656
			C302.55,287.299,293.001,322.621,275.92,354.448z M304,234.24l-64,21.328l-64-21.328V114.808l27.496-34.4L249,85.464
			c16.083,1.754,32.301-1.776,46.2-10.056c0.488-0.296,0.944-0.64,1.424-0.944c4.812,9.104,7.343,19.239,7.376,29.536V234.24z
			 M309.264,64.392c5.57-5.548,10.221-11.948,13.776-18.96c8.285,7.799,12.976,18.678,12.96,30.056
			c0.03,11.018-4.349,21.59-12.16,29.36l-3.84,3.84V104C319.947,90.086,316.245,76.429,309.264,64.392z"/>
	</g>
</g>
<g>
	<g>
		<path d="M373.392,410.096l-15.712-15.72c-2.312-2.309-5.796-2.981-8.8-1.696l-56,24c-4.037,1.684-5.945,6.321-4.261,10.358
			c0.271,0.65,0.628,1.262,1.061,1.818l-49.84,18.656l-93.312-31.096c-2.574-0.86-5.408-0.357-7.528,1.336l-40,32
			c-3.451,2.761-4.009,7.797-1.248,11.248c2.761,3.451,7.797,4.009,11.248,1.248l36.6-29.28l91.872,30.616h0.072
			c0.792,0.267,1.621,0.407,2.456,0.416c0.895-0.011,1.781-0.171,2.624-0.472c0.061-0.003,0.123-0.003,0.184,0l59.2-22.192
			l20.072,20.072c14.169,14.169,37.143,14.169,51.312,0S387.562,424.266,373.392,410.096z M361.603,450.064
			c-7.868,7.623-20.367,7.623-28.235,0l-23.36-23.368l40.16-17.208l11.888,11.888C369.853,429.424,369.65,442.268,361.603,450.064z"
			/>
	</g>
</g>
<g>
</g>
<g>
</g>
<g>
</g>
<g>
</g>
<g>
</g>
<g>
</g>
<g>
</g>
<g>
</g>
<g>
</g>
<g>
</g>
<g>
</g>
<g>
</g>
<g>
</g>
<g>
</g>
<g>
</g>
</svg>
