<?xml version="1.0" encoding="iso-8859-1"?>
<!-- Generator: Adobe Illustrator 19.0.0, SVG Export Plug-In . SVG Version: 6.00 Build 0)  -->
<svg version="1.1" id="Layer_1" xmlns="http://www.w3.org/2000/svg" xmlns:xlink="http://www.w3.org/1999/xlink" x="0px" y="0px" width="235px" height="235px" 
	 viewBox="0 0 512 512" style="enable-background:new 0 0 512 512;" xml:space="preserve">
<g>
	<g>
		<g>
			<path style="fill:#231F20;" d="M266.977,248.048c92.875-76.063,42.696-225.89-75.005-233.257
				C63.858,6.784,2.058,167.715,100.104,248.048L8.149,407.318c-23.143,40.089,5.756,90.178,52.065,90.178h246.653
				c46.292,0,75.22-50.076,52.065-90.178L266.977,248.048z M306.866,454.818H60.213c-13.416,0-21.83-14.514-15.106-26.163
				l92.798-160.732c10.141-17.564,5.995-39.501-9.861-52.162c-67.305-53.755-26.199-163.856,61.262-158.377
				c80.106,5.014,113.664,107.557,49.567,158.508c-15.53,12.345-19.697,34.717-9.693,52.038l92.795,160.726
				C328.681,440.276,320.318,454.818,306.866,454.818z"/>
			<path style="fill:#231F20;" d="M504.494,414.457l-79.567-137.812c80.954-68.807,35.909-201.276-69.006-207.841
				c-11.762-0.74-21.894,8.202-22.628,19.964c-0.737,11.762,8.202,21.893,19.964,22.63c67.916,4.251,96.352,91.195,42.018,134.388
				c-14.631,11.628-18.563,32.699-9.146,49.012l81.406,141c4.888,8.467-1.223,19.024-10.985,19.024h-53.082
				c-11.784,0-21.338,9.554-21.338,21.338c0,11.784,9.554,21.338,21.338,21.338h53.082
				C499.16,497.495,525.82,451.394,504.494,414.457z"/>
		</g>
	</g>
</g>
<g>
</g>
<g>
</g>
<g>
</g>
<g>
</g>
<g>
</g>
<g>
</g>
<g>
</g>
<g>
</g>
<g>
</g>
<g>
</g>
<g>
</g>
<g>
</g>
<g>
</g>
<g>
</g>
<g>
</g>
</svg>
