<?xml version="1.0"?>
<svg xmlns="http://www.w3.org/2000/svg" id="Line" height="512px" viewBox="0 0 64 64" width="512px" class=""><g><g fill="#c4a2fc"><circle cx="27.5" cy="24" r="10" data-original="#C4A2FC" class="" style="fill:#08C8D5" data-old_color="#C4A2FC"/><circle cx="52.5" cy="23" r="10" data-original="#C4A2FC" class="" style="fill:#08C8D5" data-old_color="#C4A2FC"/><path d="m43.5 33a13.762 13.762 0 0 0 -4.86.88 16.083 16.083 0 0 1 10.67 12.66 10.7 10.7 0 0 1 .06 1.19l-2.02-.63c-.016-.343-.01-.224-.01-.25a14 14 0 0 0 -27.84 2.15v11a3.009 3.009 0 0 0 3 3h22a3.009 3.009 0 0 0 3-3v-4.77l2 .63v4.14a5.468 5.468 0 0 1 -.1 1h5.1a3.009 3.009 0 0 0 3-3v-11a14.015 14.015 0 0 0 -14-14zm-22 21.66v-3.92l5.59-1.67a1.873 1.873 0 1 1 1.07 3.59zm21.31-2.99a1.86 1.86 0 1 1 1.11-3.55l11.58 3.62v3.9z" data-original="#C4A2FC" class="" style="fill:#08C8D5" data-old_color="#C4A2FC"/></g><path d="m12.5 19a9 9 0 1 0 -9-9 9.011 9.011 0 0 0 9 9zm0-16a7 7 0 1 1 -7 7 7.008 7.008 0 0 1 7-7z" fill="#151a6a" data-original="#151A6A" class="active-path" data-old_color="#151a6a" style="fill:#03454A"/><path d="m40.5 19a9 9 0 1 0 -9-9 9.011 9.011 0 0 0 9 9zm0-16a7 7 0 1 1 -7 7 7.008 7.008 0 0 1 7-7z" fill="#151a6a" data-original="#151A6A" class="active-path" data-old_color="#151a6a" style="fill:#03454A"/><path d="m42.5 21h-36a5.006 5.006 0 0 0 -5 5v22a3 3 0 0 0 3 3h16a3 3 0 0 0 3-3v-16h3a3 3 0 0 1 3 3v13a3 3 0 0 0 3 3h16a3 3 0 0 0 3-3v-18a9.011 9.011 0 0 0 -9-9zm-39 5a3 3 0 0 1 6 0v2a3 3 0 0 1 -6 0zm18 22a1 1 0 0 1 -1 1h-16a1 1 0 0 1 -1-1v-16.026a4.948 4.948 0 0 0 3 1.026 5.006 5.006 0 0 0 5-5v-2a4.948 4.948 0 0 0 -1.026-3h4.026a7.008 7.008 0 0 1 7 7zm28 0a1 1 0 0 1 -1 1h-16a1 1 0 0 1 -1-1v-13a5.006 5.006 0 0 0 -5-5h-3a8.983 8.983 0 0 0 -3.356-7h22.356a7.008 7.008 0 0 1 7 7z" fill="#151a6a" data-original="#151A6A" class="active-path" data-old_color="#151a6a" style="fill:#03454A"/></g> </svg>
