<?xml version="1.0"?>
<svg xmlns="http://www.w3.org/2000/svg" id="Line" height="512px" viewBox="0 0 64 64" width="512px" class=""><g><path d="m61.427 13a38.381 38.381 0 0 0 -20.29 7.7 37.8 37.8 0 0 0 -10.548 12.667 10.586 10.586 0 0 0 -9.176.725 2.939 2.939 0 0 0 -.634 4.624l16 16a2.906 2.906 0 0 0 4.532-.491 10.635 10.635 0 0 0 .815-9.321 37.82 37.82 0 0 0 12.674-10.546 38.363 38.363 0 0 0 7.7-20.284 1 1 0 0 0 -1.073-1.074zm-7.394 15.327a4.853 4.853 0 1 1 0-6.862 4.849 4.849 0 0 1 0 6.862z" fill="#c4a2fc" data-original="#C4A2FC" class="" style="fill:#08C8D5" data-old_color="#c4a2fc"/><path d="m22.087 42.645a2.937 2.937 0 0 0 -4.35.227c-4.115 5.038-3.571 9.23-3.546 9.406a1 1 0 0 0 1.7.565c.61-.61 2.424-.943 3.9-1.039.3 4.375-5.757 8.3-5.822 8.341a1 1 0 0 0 .187 1.781 16.428 16.428 0 0 0 5.795 1.074c6.078 0 10.79-3.469 12.845-5.292a2.918 2.918 0 0 0 .112-4.245z" fill="#c4a2fc" data-original="#C4A2FC" class="" style="fill:#08C8D5" data-old_color="#c4a2fc"/><g fill="#151a6a"><path d="m51.5 26a25 25 0 1 0 -42.678 17.676 1.021 1.021 0 0 0 1.413 0l4.97-4.969a1 1 0 0 0 -1.414-1.414l-4.226 4.228a22.988 22.988 0 1 1 39.935-15.521 22.852 22.852 0 0 1 -6.065 15.521l-4.228-4.228a1 1 0 0 0 -1.414 1.414l4.97 4.97a1.022 1.022 0 0 0 1.413 0 24.875 24.875 0 0 0 7.324-17.677z" data-original="#151A6A" class="active-path" style="fill:#03454A" data-old_color="#151A6A"/><path d="m26.5 7a18.929 18.929 0 0 1 10 2.849 1 1 0 1 0 1.055-1.7 21.006 21.006 0 0 0 -30.31 26.251 1 1 0 0 0 1.833-.8 19.016 19.016 0 0 1 17.422-26.6z" data-original="#151A6A" class="active-path" style="fill:#03454A" data-old_color="#151A6A"/><path d="m45.081 29.989a18.783 18.783 0 0 1 -1.159 3.611 1 1 0 1 0 1.832.8 20.834 20.834 0 0 0 1.284-3.995 1 1 0 0 0 -1.957-.416z" data-original="#151A6A" class="active-path" style="fill:#03454A" data-old_color="#151A6A"/><path d="m47.5 25.858a21.128 21.128 0 0 0 -.526-4.538 1 1 0 1 0 -1.95.444 19.125 19.125 0 0 1 .476 4.109 1 1 0 0 0 1 .992h.007a1 1 0 0 0 .993-1.007z" data-original="#151A6A" class="active-path" style="fill:#03454A" data-old_color="#151A6A"/><path d="m43.3 13.412a1 1 0 0 0 -1.6 1.2 19.064 19.064 0 0 1 1.965 3.245 1 1 0 0 0 1.807-.857 21.072 21.072 0 0 0 -2.172-3.588z" data-original="#151A6A" class="active-path" style="fill:#03454A" data-old_color="#151A6A"/><path d="m38.947 13.105a1 1 0 0 0 -1.342.448l-9.574 19.168a5.526 5.526 0 1 0 1.786.9l9.583-19.174a1 1 0 0 0 -.453-1.342zm-12.447 28.395a3.5 3.5 0 1 1 3.5-3.5 3.5 3.5 0 0 1 -3.5 3.5z" data-original="#151A6A" class="active-path" style="fill:#03454A" data-old_color="#151A6A"/></g></g> </svg>
