<?xml version="1.0"?>
<svg xmlns="http://www.w3.org/2000/svg" id="Line" height="512px" viewBox="0 0 64 64" width="512px" class=""><g><path d="m60 37h-3v20h3a3 3 0 0 0 3-3v-14a3 3 0 0 0 -3-3z" fill="#c4a2fc" data-original="#C4A2FC" class="" style="fill:#08C8D5" data-old_color="#c4a2fc"/><path d="m52 31h-36a3 3 0 0 0 -3 3v26a3 3 0 0 0 3 3h36a3 3 0 0 0 3-3v-26a3 3 0 0 0 -3-3zm-29 26a1 1 0 0 1 -2 0v-20a1 1 0 0 1 2 0zm8 0a1 1 0 0 1 -2 0v-20a1 1 0 0 1 2 0zm8 0a1 1 0 0 1 -2 0v-20a1 1 0 0 1 2 0zm8 0a1 1 0 0 1 -2 0v-20a1 1 0 0 1 2 0z" fill="#c4a2fc" data-original="#C4A2FC" class="" style="fill:#08C8D5" data-old_color="#c4a2fc"/><g fill="#151a6a"><path d="m26 1a25 25 0 1 0 25 25 25 25 0 0 0 -25-25zm0 48a23 23 0 1 1 23-23 23 23 0 0 1 -23 23z" data-original="#151A6A" class="active-path" style="fill:#03454A" data-old_color="#151A6A"/><path d="m26 7a19 19 0 1 0 19 19 19 19 0 0 0 -19-19zm0 36a17 17 0 1 1 17-17 17 17 0 0 1 -17 17z" data-original="#151A6A" class="active-path" style="fill:#03454A" data-old_color="#151A6A"/><path d="m31 22h-1.61l1.61-4.68a1 1 0 0 0 -1-1.32h-6a1 1 0 0 0 -.95.68l-3 9a1 1 0 0 0 .95 1.32h1.75l-1.75 7.78a1 1 0 0 0 1.78.82l9-12a1 1 0 0 0 -.78-1.6zm-7 8.69 1-4.47a1 1 0 0 0 -1-1.22h-1.61l2.33-7h3.89l-1.56 4.68a1 1 0 0 0 .14.9 1 1 0 0 0 .81.42h1z" data-original="#151A6A" class="active-path" style="fill:#03454A" data-old_color="#151A6A"/></g></g> </svg>
