<?xml version="1.0"?>
<svg xmlns="http://www.w3.org/2000/svg" id="line" height="512px" viewBox="0 0 64 64" width="512px" class=""><g><path d="m45.187 18.019a17.132 17.132 0 0 0 -16.162 16.056 16.852 16.852 0 0 0 4.5 12.46 13 13 0 0 1 3.063 5.465h18.794a11.8 11.8 0 0 1 2.91-5.273 16.989 16.989 0 0 0 -13.105-28.708zm7.177 9.2 1.414-1.414a1 1 0 0 1 1.414 1.414l-1.414 1.414a1 1 0 1 1 -1.414-1.414zm-7.364-4.219a1 1 0 0 1 2 0v2a1 1 0 0 1 -2 0zm-8.192 2.808a1 1 0 0 1 1.414 0l1.414 1.414a1 1 0 1 1 -1.414 1.414l-1.414-1.414a1 1 0 0 1 0-1.414zm-2.808 10.192a1 1 0 0 1 0-2h2a1 1 0 0 1 0 2zm5.636 6.778-1.414 1.414a1 1 0 0 1 -1.414-1.414l1.414-1.414a1 1 0 0 1 1.414 1.414zm7.364 4.222a1 1 0 0 1 -2 0v-2a1 1 0 0 1 2 0zm-1-5a7 7 0 1 1 7-7 7.008 7.008 0 0 1 -7 7zm9.192 2.192a1 1 0 0 1 -1.414 0l-1.414-1.414a1 1 0 0 1 1.414-1.414l1.414 1.414a1 1 0 0 1 0 1.414zm2.808-8.192h-2a1 1 0 0 1 0-2h2a1 1 0 0 1 0 2z" fill="#c4a2fc" data-original="#C4A2FC" class="active-path" style="fill:#08C8D5" data-old_color="#c4a2fc"/><path d="m55 54h-18a2 2 0 0 0 0 4h18a2 2 0 0 0 0-4z" fill="#c4a2fc" data-original="#C4A2FC" class="active-path" style="fill:#08C8D5" data-old_color="#c4a2fc"/><path d="m39 61a2 2 0 0 0 2 2h10a2 2 0 0 0 2-2v-1h-14z" fill="#c4a2fc" data-original="#C4A2FC" class="active-path" style="fill:#08C8D5" data-old_color="#c4a2fc"/><g fill="#151a6a"><path d="m26 6a1 1 0 0 0 1-1v-3a1 1 0 0 0 -2 0v3a1 1 0 0 0 1 1z" data-original="#151A6A" class="" data-old_color="#151A6A" style="fill:#03454A"/><path d="m44.915 25.164a19 19 0 0 0 -37.915 1.529l-5.831 8.752a1 1 0 0 0 .831 1.555h5v3a6.007 6.007 0 0 0 6 6h5v4a1 1 0 0 0 1 1h14a1 1 0 0 0 1-1v-5.782a18.968 18.968 0 0 0 10.915-19.054zm-12.3 17.483a1 1 0 0 0 -.611.921v5.432h-12.004v-4a1 1 0 0 0 -1-1h-6a4 4 0 0 1 -4-4v-4a1 1 0 0 0 -1-1h-4.13l4.963-7.445a1 1 0 0 0 .167-.555 17 17 0 1 1 23.612 15.647z" data-original="#151A6A" class="" data-old_color="#151A6A" style="fill:#03454A"/><path d="m10.445 11.858a1 1 0 0 0 1.414-1.414l-2.121-2.122a1 1 0 1 0 -1.415 1.414z" data-original="#151A6A" class="" data-old_color="#151A6A" style="fill:#03454A"/><path d="m41.557 11.858 2.122-2.122a1 1 0 0 0 -1.414-1.414l-2.122 2.122a1 1 0 0 0 1.414 1.414z" data-original="#151A6A" class="" data-old_color="#151A6A" style="fill:#03454A"/><path d="m34.264 20.324-10.294 11.23-6.262-6.261a1 1 0 1 0 -1.414 1.414l7 7a1 1 0 0 0 1.445-.031l11-12a1 1 0 0 0 -1.475-1.352z" data-original="#151A6A" class="" data-old_color="#151A6A" style="fill:#03454A"/></g></g> </svg>
