<?xml version="1.0"?>
<svg xmlns="http://www.w3.org/2000/svg" id="Line" height="512px" viewBox="0 0 64 64" width="512px" class=""><g><g fill="#c4a2fc"><path d="m42 35c5.135 0 9-7.28 9-12a9 9 0 0 0 -18 0c0 4.72 3.865 12 9 12z" data-original="#C4A2FC" class="" style="fill:#08C8D5" data-old_color="#C4A2FC"/><path d="m39.268 54.701 2.732 2.049 2.732-2.049-2.732-5.465z" data-original="#C4A2FC" class="" style="fill:#08C8D5" data-old_color="#C4A2FC"/><path d="m42 37a21.024 21.024 0 0 0 -21 21v2a3 3 0 0 0 3 3h36a3 3 0 0 0 3-3v-2a21.024 21.024 0 0 0 -21-21zm4.9 17.553a1 1 0 0 1 -.3 1.247l-4 3a1 1 0 0 1 -1.2 0l-4-3a1 1 0 0 1 -.3-1.247l3.683-7.353-3.489-3.489a1 1 0 0 1 .706-1.711h8a1 1 0 0 1 .706 1.708l-3.489 3.492z" data-original="#C4A2FC" class="" style="fill:#08C8D5" data-old_color="#C4A2FC"/></g><path d="m48 7h-13v-3a3 3 0 0 0 -3-3h-12a3 3 0 0 0 -3 3v3h-13a3 3 0 0 0 -3 3v15a3 3 0 0 0 3 3v20a3 3 0 0 0 3 3h38a3 3 0 0 0 3-3v-20a3 3 0 0 0 3-3v-15a3 3 0 0 0 -3-3zm-29-3a1 1 0 0 1 1-1h12a1 1 0 0 1 1 1v3h-14zm-13 44v-20h15v21h-14a1 1 0 0 1 -1-1zm17 1v-25a3 3 0 0 1 6 0v25zm23-1a1 1 0 0 1 -1 1h-14v-21h15zm3-23a1 1 0 0 1 -1 1h-17v-2a5 5 0 0 0 -10 0v2h-17a1 1 0 0 1 -1-1v-15a1 1 0 0 1 1-1h44a1 1 0 0 1 1 1z" fill="#151a6a" data-original="#151A6A" class="active-path" style="fill:#03454A" data-old_color="#151a6a"/><path d="m26 23a1 1 0 0 0 -1 1v4a1 1 0 0 0 2 0v-4a1 1 0 0 0 -1-1z" fill="#151a6a" data-original="#151A6A" class="active-path" style="fill:#03454A" data-old_color="#151a6a"/></g> </svg>
