<?xml version="1.0"?>
<svg xmlns="http://www.w3.org/2000/svg" id="Line" height="512px" viewBox="0 0 64 64" width="512px" class=""><g><path d="m44.627 27.451a8.322 8.322 0 0 0 -5.92 2.452 1 1 0 0 1 -1.414 0 8.373 8.373 0 0 0 -14.293 5.921c0 10.239 12.484 17.415 15 18.756 2.516-1.341 15-8.517 15-18.756a8.383 8.383 0 0 0 -8.373-8.373zm5.373 9.373a1 1 0 0 1 -1-1 4.354 4.354 0 0 0 -2.444-3.924 1 1 0 0 1 .884-1.793 6.339 6.339 0 0 1 3.56 5.717 1 1 0 0 1 -1 1z" fill="#c4a2fc" data-original="#C4A2FC" class="active-path" style="fill:#08C8D5" data-old_color="#c4a2fc"/><path d="m38 13a25 25 0 1 0 25 25 25.028 25.028 0 0 0 -25-25zm.437 43.605a1 1 0 0 1 -.875 0c-.675-.329-16.562-8.197-16.562-20.781a10.374 10.374 0 0 1 17-7.981 10.374 10.374 0 0 1 17 7.981c0 12.584-15.887 20.452-16.563 20.781z" fill="#c4a2fc" data-original="#C4A2FC" class="active-path" style="fill:#08C8D5" data-old_color="#c4a2fc"/><g fill="#151a6a"><path d="m50.948 7.684-2-6a1 1 0 0 0 -.948-.684h-44a1 1 0 0 0 -.948.684l-2 6a1 1 0 0 0 .238 1.021l10.566 10.64a19 19 0 1 0 28.288 0l10.566-10.64a1 1 0 0 0 .238-1.021zm-9.602-.684h-30.692l-4-4h38.692zm-7.646 7.641a18.907 18.907 0 0 0 -15.409 0l-5.637-5.641h26.692zm-29.2-10.97 11.919 11.922a19.821 19.821 0 0 0 -3.168 2.318l-10.107-10.179zm21.5 45.329a17 17 0 1 1 17-17 17.019 17.019 0 0 1 -17 17zm12.749-31.089a19.8 19.8 0 0 0 -3.168-2.318l11.919-11.922 1.353 4.061z" data-original="#151A6A" class="" data-old_color="#151A6A" style="fill:#03454A"/><path d="m33.182 43.409-7.182-3.774-7.182 3.774a1 1 0 0 1 -1.45-1.054l1.371-8-5.809-5.655a1 1 0 0 1 .554-1.706l8.029-1.166 3.587-7.28a1.041 1.041 0 0 1 1.792 0l3.591 7.276 8.029 1.166a1 1 0 0 1 .558 1.71l-5.809 5.663 1.371 8a1 1 0 0 1 -1.45 1.046zm-6.717-5.789 5.853 3.08-1.118-6.521a1 1 0 0 1 .287-.885l4.736-4.616-6.544-.95a1 1 0 0 1 -.753-.548l-2.926-5.93-2.927 5.93a1 1 0 0 1 -.753.548l-6.544.95 4.736 4.616a1 1 0 0 1 .287.885l-1.117 6.521 5.853-3.076a1 1 0 0 1 .93-.004z" data-original="#151A6A" class="" data-old_color="#151A6A" style="fill:#03454A"/></g></g> </svg>
