<?xml version="1.0"?>
<svg xmlns="http://www.w3.org/2000/svg" id="line" height="512px" viewBox="0 0 64 64" width="512px" class=""><g><g fill="#c4a2fc"><path d="m48 53v-35a6 6 0 0 0 -12 0v35z" data-original="#C4A2FC" class="active-path" style="fill:#08C8D5" data-old_color="#C4A2FC"/><path d="m36.446 55 4.706 7.53a1 1 0 0 0 1.7 0l4.703-7.53z" data-original="#C4A2FC" class="active-path" style="fill:#08C8D5" data-old_color="#C4A2FC"/><path d="m62 37h-1v-3a1 1 0 0 0 -1-1v-10h1a1 1 0 0 0 .97-1.242l-2-8a1 1 0 0 0 -.97-.758h-4a1 1 0 0 0 -.97.758l-2 8a1 1 0 0 0 .97 1.242h1v10a1 1 0 0 0 -1 1v3h-1a1 1 0 0 0 -1 1v19a6 6 0 0 0 12 0v-19a1 1 0 0 0 -1-1zm-6-14h2v10h-2zm2 35a1 1 0 0 1 -2 0v-16a1 1 0 0 1 2 0zm1-21h-4v-2h4z" data-original="#C4A2FC" class="active-path" style="fill:#08C8D5" data-old_color="#C4A2FC"/></g><path d="m25.5 34a8.5 8.5 0 1 1 8.5-8.5 8.51 8.51 0 0 1 -8.5 8.5zm0-15a6.5 6.5 0 1 0 6.5 6.5 6.508 6.508 0 0 0 -6.5-6.5z" fill="#161e68" data-original="#161E68" class="" style="fill:#03454A" data-old_color="#161e68"/><path d="m25.5 40a14.5 14.5 0 1 1 14.5-14.5 14.517 14.517 0 0 1 -14.5 14.5zm0-27a12.5 12.5 0 1 0 12.5 12.5 12.514 12.514 0 0 0 -12.5-12.5z" fill="#161e68" data-original="#161E68" class="" style="fill:#03454A" data-old_color="#161e68"/><path d="m30.021 49.438a5.019 5.019 0 0 0 -9.041 0 1 1 0 0 1 -1.123.537 24.9 24.9 0 0 1 -7.686-3.187 1 1 0 0 1 -.414-1.173 4.992 4.992 0 0 0 -6.372-6.371 1 1 0 0 1 -1.173-.414 24.907 24.907 0 0 1 -3.186-7.686 1 1 0 0 1 .537-1.123 4.993 4.993 0 0 0 2.837-4.521 5 5 0 0 0 -2.837-4.52 1 1 0 0 1 -.537-1.123 24.912 24.912 0 0 1 3.186-7.685 1 1 0 0 1 1.173-.414 4.992 4.992 0 0 0 6.372-6.371 1 1 0 0 1 .414-1.173 24.9 24.9 0 0 1 7.686-3.188 1 1 0 0 1 1.123.537 5 5 0 0 0 4.52 2.837 5 5 0 0 0 4.521-2.838 1 1 0 0 1 1.123-.537 24.922 24.922 0 0 1 7.686 3.189 1 1 0 0 1 .413 1.173 4.992 4.992 0 0 0 6.372 6.371 1 1 0 0 1 1.173.414 24.938 24.938 0 0 1 3.187 7.685 1 1 0 0 1 -.538 1.123 5.019 5.019 0 0 0 0 9.041 1 1 0 0 1 .538 1.123 24.934 24.934 0 0 1 -3.187 7.686 1 1 0 0 1 -1.173.414 4.992 4.992 0 0 0 -6.372 6.371 1 1 0 0 1 -.413 1.173 24.919 24.919 0 0 1 -7.686 3.187 1 1 0 0 1 -1.123-.537zm-4.521-4.838a6.971 6.971 0 0 1 5.92 3.248 22.922 22.922 0 0 0 5.71-2.368 6.987 6.987 0 0 1 8.35-8.35 22.934 22.934 0 0 0 2.367-5.709 7.019 7.019 0 0 1 0-11.84 22.934 22.934 0 0 0 -2.367-5.709 6.987 6.987 0 0 1 -8.35-8.351 22.919 22.919 0 0 0 -5.71-2.367 6.97 6.97 0 0 1 -5.92 3.246 6.97 6.97 0 0 1 -5.92-3.247 22.9 22.9 0 0 0 -5.709 2.367 6.987 6.987 0 0 1 -8.35 8.351 22.9 22.9 0 0 0 -2.368 5.709 6.969 6.969 0 0 1 3.247 5.92 6.971 6.971 0 0 1 -3.248 5.92 22.9 22.9 0 0 0 2.369 5.71 6.987 6.987 0 0 1 8.35 8.35 22.9 22.9 0 0 0 5.709 2.368 6.971 6.971 0 0 1 5.92-3.248z" fill="#161e68" data-original="#161E68" class="" style="fill:#03454A" data-old_color="#161e68"/></g> </svg>
